G04 #@! TF.GenerationSoftware,KiCad,Pcbnew,(6.0.11)*
G04 #@! TF.CreationDate,2023-03-10T15:43:48+07:00*
G04 #@! TF.ProjectId,two-phase,74776f2d-7068-4617-9365-2e6b69636164,rev?*
G04 #@! TF.SameCoordinates,Original*
G04 #@! TF.FileFunction,Legend,Bot*
G04 #@! TF.FilePolarity,Positive*
%FSLAX46Y46*%
G04 Gerber Fmt 4.6, Leading zero omitted, Abs format (unit mm)*
G04 Created by KiCad (PCBNEW (6.0.11)) date 2023-03-10 15:43:48*
%MOMM*%
%LPD*%
G01*
G04 APERTURE LIST*
G04 #@! TA.AperFunction,Profile*
%ADD10C,0.150000*%
G04 #@! TD*
%ADD11C,1.500000*%
%ADD12C,2.000000*%
%ADD13C,3.000000*%
%ADD14R,2.000000X1.905000*%
%ADD15O,2.000000X1.905000*%
%ADD16C,1.600000*%
%ADD17C,1.400000*%
%ADD18O,1.400000X1.400000*%
%ADD19C,4.800000*%
%ADD20R,2.200000X2.200000*%
%ADD21O,2.200000X2.200000*%
%ADD22R,1.600000X1.600000*%
%ADD23O,1.600000X1.600000*%
%ADD24C,8.000000*%
%ADD25R,2.000000X2.000000*%
%ADD26C,2.000000*%
%ADD27O,1.300000X1.300000*%
%ADD28C,1.300000*%
%ADD29R,1.700000X1.700000*%
%ADD30O,1.700000X1.700000*%
G04 APERTURE END LIST*
D10*
X14900000Y-171480000D02*
X172720000Y-171480000D01*
X172720000Y-171480000D02*
X172720000Y-17720000D01*
X172720000Y-17720000D02*
X14900000Y-17720000D01*
X14900000Y-17720000D02*
X14900000Y-171480000D01*
%LPC*%
D11*
X143750000Y-51875000D02*
X149750000Y-51875000D01*
X143750000Y-88780000D02*
X149750000Y-88780000D01*
X143750000Y-164000000D02*
X149750000Y-164000000D01*
X143750000Y-126360000D02*
X149750000Y-126360000D01*
X146750000Y-76800000D02*
X149850000Y-79900000D01*
X148550000Y-123800000D02*
X149500000Y-122900000D01*
X148550000Y-161450000D02*
X149500000Y-160450000D01*
X149500000Y-48100000D02*
X149500000Y-42950000D01*
D12*
X162735000Y-117600000D02*
X150000000Y-117600000D01*
D11*
X146750000Y-152050000D02*
X149950000Y-155250000D01*
X146800000Y-111800000D02*
X153000000Y-111800000D01*
X146705000Y-161450000D02*
X148550000Y-161450000D01*
D12*
X150000000Y-155200000D02*
X162735000Y-155200000D01*
D13*
X162735000Y-93600000D02*
X153500000Y-93600000D01*
D11*
X146800000Y-37300000D02*
X153000000Y-37300000D01*
X146800000Y-74200000D02*
X153000000Y-74200000D01*
D12*
X149550000Y-43300000D02*
X162750000Y-43300000D01*
D11*
X146750000Y-114400000D02*
X149850000Y-117500000D01*
X149500000Y-122900000D02*
X149500000Y-117350000D01*
X148400000Y-86250000D02*
X149400000Y-85250000D01*
X146800000Y-123800000D02*
X148550000Y-123800000D01*
X149500000Y-160450000D02*
X149500000Y-155200000D01*
X146750000Y-86250000D02*
X148400000Y-86250000D01*
X148500000Y-49400000D02*
X149500000Y-48400000D01*
D12*
X150100000Y-80100000D02*
X162735000Y-80100000D01*
D11*
X146700000Y-49400000D02*
X148500000Y-49400000D01*
X146750000Y-39900000D02*
X150000000Y-43150000D01*
X146750000Y-149400000D02*
X153000000Y-149400000D01*
X149400000Y-85250000D02*
X149400000Y-79600000D01*
D14*
X146735000Y-83700000D03*
D15*
X146735000Y-86240000D03*
X146735000Y-88780000D03*
D16*
X138250000Y-102717677D03*
X138250000Y-97717677D03*
D17*
X133560000Y-161450000D03*
D18*
X138640000Y-161450000D03*
D19*
X162735000Y-104350000D03*
D16*
X109485000Y-108487677D03*
X114485000Y-108487677D03*
X145985000Y-102717677D03*
X145985000Y-97717677D03*
D20*
X120367930Y-125067677D03*
D21*
X125447930Y-125067677D03*
D17*
X58875000Y-121447677D03*
D18*
X58875000Y-116367677D03*
D17*
X101975000Y-83700000D03*
D18*
X101975000Y-78620000D03*
D16*
X93625000Y-51270000D03*
X93625000Y-43770000D03*
D20*
X120342930Y-87490000D03*
D21*
X125422930Y-87490000D03*
D20*
X93725000Y-38622183D03*
D21*
X93725000Y-33542183D03*
D16*
X81125000Y-50020000D03*
X76125000Y-50020000D03*
D22*
X76115000Y-110627677D03*
D23*
X76115000Y-113167677D03*
X76115000Y-115707677D03*
X76115000Y-118247677D03*
X83735000Y-118247677D03*
X83735000Y-115707677D03*
X83735000Y-113167677D03*
X83735000Y-110627677D03*
D24*
X20320000Y-166370000D03*
D17*
X133560000Y-46800000D03*
D18*
X138640000Y-46800000D03*
D16*
X82395000Y-104117677D03*
X77395000Y-104117677D03*
D17*
X58875000Y-145250000D03*
D18*
X53795000Y-145250000D03*
D22*
X122500000Y-117467677D03*
D16*
X122500000Y-119467677D03*
D19*
X162735000Y-93600000D03*
D16*
X145985000Y-140350000D03*
X145985000Y-135350000D03*
X31355000Y-62810000D03*
X31355000Y-67810000D03*
D17*
X102000000Y-46810000D03*
D18*
X102000000Y-41730000D03*
D16*
X69145000Y-41330000D03*
X69145000Y-36330000D03*
D17*
X104625000Y-46810000D03*
D18*
X104625000Y-41730000D03*
D19*
X162735000Y-117600000D03*
D17*
X88125000Y-163410000D03*
D18*
X88125000Y-158330000D03*
D16*
X81125000Y-162120000D03*
X76125000Y-162120000D03*
D17*
X138680000Y-37350000D03*
D18*
X133600000Y-37350000D03*
D20*
X98125000Y-145797818D03*
D21*
X98125000Y-150877818D03*
D16*
X109485000Y-146120000D03*
X114485000Y-146120000D03*
D17*
X66425000Y-156800000D03*
D18*
X71505000Y-156800000D03*
D17*
X141485000Y-39890000D03*
D18*
X141485000Y-34810000D03*
D16*
X31355000Y-32310000D03*
X31355000Y-27310000D03*
D22*
X87625000Y-142370000D03*
D16*
X87625000Y-140370000D03*
D17*
X93725000Y-61850000D03*
D18*
X93725000Y-66930000D03*
D17*
X36800000Y-121140000D03*
D18*
X41880000Y-120900000D03*
D22*
X76090000Y-73050000D03*
D23*
X76090000Y-75590000D03*
X76090000Y-78130000D03*
X76090000Y-80670000D03*
X83710000Y-80670000D03*
X83710000Y-78130000D03*
X83710000Y-75590000D03*
X83710000Y-73050000D03*
D17*
X138560000Y-149450000D03*
D18*
X133480000Y-149450000D03*
D16*
X109460000Y-70910000D03*
X114460000Y-70910000D03*
X145960000Y-65140000D03*
X145960000Y-60140000D03*
D17*
X104600000Y-83700000D03*
D18*
X104600000Y-78620000D03*
D25*
X127000000Y-142820708D03*
D26*
X127000000Y-135320708D03*
D20*
X98125000Y-33697818D03*
D21*
X98125000Y-38777818D03*
D17*
X102000000Y-158910000D03*
D18*
X102000000Y-153830000D03*
D14*
X31355000Y-51560000D03*
D15*
X31355000Y-54100000D03*
X31355000Y-56640000D03*
D20*
X130460000Y-71700000D03*
D21*
X130460000Y-76780000D03*
D20*
X98125000Y-108165495D03*
D21*
X98125000Y-113245495D03*
D22*
X108185000Y-151150000D03*
D23*
X108185000Y-153690000D03*
X108185000Y-156230000D03*
X108185000Y-158770000D03*
X115805000Y-158770000D03*
X115805000Y-156230000D03*
X115805000Y-153690000D03*
X115805000Y-151150000D03*
D16*
X69120000Y-78220000D03*
X69120000Y-73220000D03*
D24*
X167640000Y-166370000D03*
D20*
X130485000Y-146910000D03*
D21*
X130485000Y-151990000D03*
D17*
X104625000Y-158910000D03*
D18*
X104625000Y-153830000D03*
D16*
X71625000Y-50020000D03*
X64125000Y-50020000D03*
X71600000Y-86910000D03*
X64100000Y-86910000D03*
D17*
X93750000Y-99427677D03*
D18*
X93750000Y-104507677D03*
D16*
X82370000Y-66540000D03*
X77370000Y-66540000D03*
D17*
X58875000Y-46980000D03*
D18*
X58875000Y-41900000D03*
D20*
X130485000Y-109277677D03*
D21*
X130485000Y-114357677D03*
D22*
X108185000Y-113517677D03*
D23*
X108185000Y-116057677D03*
X108185000Y-118597677D03*
X108185000Y-121137677D03*
X115805000Y-121137677D03*
X115805000Y-118597677D03*
X115805000Y-116057677D03*
X115805000Y-113517677D03*
D17*
X36800000Y-123680000D03*
D18*
X41880000Y-123500000D03*
D17*
X36800000Y-128760000D03*
D18*
X41880000Y-128800000D03*
D14*
X146760000Y-34810000D03*
D15*
X146760000Y-37350000D03*
X146760000Y-39890000D03*
D16*
X69145000Y-115797677D03*
X69145000Y-110797677D03*
D20*
X98100000Y-70587818D03*
D21*
X98100000Y-75667818D03*
D17*
X36830000Y-131300000D03*
D18*
X41910000Y-131300000D03*
D22*
X87600000Y-67160000D03*
D16*
X87600000Y-65160000D03*
D17*
X58875000Y-159080000D03*
D18*
X58875000Y-154000000D03*
D17*
X141460000Y-76780000D03*
D18*
X141460000Y-71700000D03*
D22*
X87625000Y-30270000D03*
D16*
X87625000Y-28270000D03*
D17*
X133560000Y-71700000D03*
D18*
X138640000Y-71700000D03*
D20*
X130485000Y-158910000D03*
D21*
X130485000Y-163990000D03*
D22*
X122500000Y-43000000D03*
D16*
X122500000Y-45000000D03*
X42200000Y-84200000D03*
X37200000Y-84200000D03*
D17*
X88125000Y-125777677D03*
D18*
X88125000Y-120697677D03*
D17*
X133560000Y-123817677D03*
D18*
X138640000Y-123817677D03*
D22*
X76115000Y-148260000D03*
D23*
X76115000Y-150800000D03*
X76115000Y-153340000D03*
X76115000Y-155880000D03*
X83735000Y-155880000D03*
X83735000Y-153340000D03*
X83735000Y-150800000D03*
X83735000Y-148260000D03*
D16*
X109485000Y-34020000D03*
X114485000Y-34020000D03*
D17*
X64125000Y-36290000D03*
D18*
X64125000Y-41370000D03*
D16*
X93600000Y-88160000D03*
X93600000Y-80660000D03*
D14*
X146760000Y-146910000D03*
D15*
X146760000Y-149450000D03*
X146760000Y-151990000D03*
D19*
X162735000Y-43350000D03*
D17*
X58875000Y-33150000D03*
D18*
X53795000Y-33150000D03*
D16*
X120190112Y-37350000D03*
X125190112Y-37350000D03*
D17*
X141485000Y-163990000D03*
D18*
X141485000Y-158910000D03*
D17*
X133560000Y-146910000D03*
D18*
X138640000Y-146910000D03*
D16*
X93625000Y-163370000D03*
X93625000Y-155870000D03*
D20*
X93725000Y-150722183D03*
D21*
X93725000Y-145642183D03*
D20*
X130460000Y-83700000D03*
D21*
X130460000Y-88780000D03*
D17*
X88125000Y-51310000D03*
D18*
X88125000Y-46230000D03*
D17*
X138560000Y-111817677D03*
D18*
X133480000Y-111817677D03*
D17*
X88100000Y-88200000D03*
D18*
X88100000Y-83120000D03*
D27*
X58875000Y-38770000D03*
D28*
X57605000Y-37500000D03*
X58875000Y-36230000D03*
D16*
X120190112Y-149450000D03*
X125190112Y-149450000D03*
D20*
X93725000Y-113089860D03*
D21*
X93725000Y-108009860D03*
D22*
X76115000Y-36160000D03*
D23*
X76115000Y-38700000D03*
X76115000Y-41240000D03*
X76115000Y-43780000D03*
X83735000Y-43780000D03*
X83735000Y-41240000D03*
X83735000Y-38700000D03*
X83735000Y-36160000D03*
D22*
X111029888Y-27410000D03*
D16*
X113029888Y-27410000D03*
D17*
X66400000Y-81590000D03*
D18*
X71480000Y-81590000D03*
D17*
X64125000Y-148390000D03*
D18*
X64125000Y-153470000D03*
D22*
X122500000Y-155100000D03*
D16*
X122500000Y-157100000D03*
D17*
X133560000Y-121277677D03*
D18*
X138640000Y-121277677D03*
D17*
X133560000Y-49340000D03*
D18*
X138640000Y-49340000D03*
D17*
X133560000Y-109277677D03*
D18*
X138640000Y-109277677D03*
D16*
X82395000Y-141750000D03*
X77395000Y-141750000D03*
D17*
X36800000Y-126220000D03*
D18*
X41880000Y-126220000D03*
D17*
X133560000Y-86240000D03*
D18*
X138640000Y-86240000D03*
D16*
X41355000Y-50840000D03*
X41355000Y-55840000D03*
D24*
X167640000Y-22860000D03*
D14*
X146760000Y-46810000D03*
D15*
X146760000Y-49350000D03*
X146760000Y-51890000D03*
D17*
X93750000Y-137060000D03*
D18*
X93750000Y-142140000D03*
D16*
X120165112Y-74240000D03*
X125165112Y-74240000D03*
D19*
X162735000Y-155200000D03*
D16*
X71625000Y-124487677D03*
X64125000Y-124487677D03*
X41300000Y-44577000D03*
X41300000Y-41077000D03*
D22*
X122475000Y-79890000D03*
D16*
X122475000Y-81890000D03*
D20*
X130485000Y-46810000D03*
D21*
X130485000Y-51890000D03*
D16*
X138250000Y-140350000D03*
X138250000Y-135350000D03*
D22*
X111004888Y-64300000D03*
D16*
X113004888Y-64300000D03*
D20*
X120367930Y-162700000D03*
D21*
X125447930Y-162700000D03*
D17*
X93750000Y-24960000D03*
D18*
X93750000Y-30040000D03*
D20*
X130485000Y-121277677D03*
D21*
X130485000Y-126357677D03*
D20*
X120367930Y-50600000D03*
D21*
X125447930Y-50600000D03*
D16*
X69145000Y-153430000D03*
X69145000Y-148430000D03*
D28*
X58875000Y-150870000D03*
X57605000Y-149600000D03*
X58875000Y-148330000D03*
D24*
X20320000Y-22860000D03*
D14*
X146760000Y-158910000D03*
D15*
X146760000Y-161450000D03*
X146760000Y-163990000D03*
D16*
X82395000Y-29650000D03*
X77395000Y-29650000D03*
X138225000Y-65140000D03*
X138225000Y-60140000D03*
D14*
X146760000Y-109277677D03*
D15*
X146760000Y-111817677D03*
X146760000Y-114357677D03*
D17*
X141485000Y-114357677D03*
D18*
X141485000Y-109277677D03*
D14*
X31355000Y-38560000D03*
D15*
X31355000Y-41100000D03*
X31355000Y-43640000D03*
D16*
X138250000Y-28250000D03*
X138250000Y-23250000D03*
D22*
X108185000Y-39050000D03*
D23*
X108185000Y-41590000D03*
X108185000Y-44130000D03*
X108185000Y-46670000D03*
X115805000Y-46670000D03*
X115805000Y-44130000D03*
X115805000Y-41590000D03*
X115805000Y-39050000D03*
D17*
X58850000Y-83870000D03*
D18*
X58850000Y-78790000D03*
D17*
X141485000Y-151990000D03*
D18*
X141485000Y-146910000D03*
D16*
X71625000Y-162120000D03*
X64125000Y-162120000D03*
D14*
X146760000Y-121277677D03*
D15*
X146760000Y-123817677D03*
X146760000Y-126357677D03*
D17*
X141485000Y-126357677D03*
D18*
X141485000Y-121277677D03*
D17*
X138560000Y-74240000D03*
D18*
X133480000Y-74240000D03*
D17*
X64100000Y-73180000D03*
D18*
X64100000Y-78260000D03*
D14*
X146735000Y-71700000D03*
D15*
X146735000Y-74240000D03*
X146735000Y-76780000D03*
D17*
X66425000Y-44700000D03*
D18*
X71505000Y-44700000D03*
D17*
X102000000Y-121277677D03*
D18*
X102000000Y-116197677D03*
D22*
X108160000Y-75940000D03*
D23*
X108160000Y-78480000D03*
X108160000Y-81020000D03*
X108160000Y-83560000D03*
X115780000Y-83560000D03*
X115780000Y-81020000D03*
X115780000Y-78480000D03*
X115780000Y-75940000D03*
D20*
X93700000Y-75512183D03*
D21*
X93700000Y-70432183D03*
D17*
X104625000Y-121277677D03*
D18*
X104625000Y-116197677D03*
D28*
X58850000Y-75660000D03*
X57580000Y-74390000D03*
X58850000Y-73120000D03*
D16*
X93625000Y-125737677D03*
X93625000Y-118237677D03*
D22*
X87625000Y-104737677D03*
D16*
X87625000Y-102737677D03*
D22*
X36000000Y-89850000D03*
D23*
X36000000Y-92390000D03*
X36000000Y-94930000D03*
X36000000Y-97470000D03*
X36000000Y-100010000D03*
X36000000Y-102550000D03*
X36000000Y-105090000D03*
X36000000Y-107630000D03*
X36000000Y-110170000D03*
X36000000Y-112710000D03*
X43620000Y-112710000D03*
X43620000Y-110170000D03*
X43620000Y-107630000D03*
X43620000Y-105090000D03*
X43620000Y-102550000D03*
X43620000Y-100010000D03*
X43620000Y-97470000D03*
X43620000Y-94930000D03*
X43620000Y-92390000D03*
X43620000Y-89850000D03*
D16*
X41355000Y-32310000D03*
X41355000Y-28810000D03*
D25*
X127000000Y-105188385D03*
D26*
X127000000Y-97688385D03*
D17*
X133560000Y-158910000D03*
D18*
X138640000Y-158910000D03*
D16*
X41450000Y-76200000D03*
X37950000Y-76200000D03*
D17*
X64125000Y-110757677D03*
D18*
X64125000Y-115837677D03*
D19*
X162735000Y-80100000D03*
D17*
X58875000Y-107617677D03*
D18*
X53795000Y-107617677D03*
D17*
X141460000Y-88780000D03*
D18*
X141460000Y-83700000D03*
D16*
X41355000Y-62810000D03*
X41355000Y-66310000D03*
X81100000Y-86910000D03*
X76100000Y-86910000D03*
D25*
X126975000Y-67610708D03*
D26*
X126975000Y-60110708D03*
D17*
X133560000Y-83700000D03*
D18*
X138640000Y-83700000D03*
D17*
X58850000Y-70040000D03*
D18*
X53770000Y-70040000D03*
D17*
X36830000Y-133840000D03*
D18*
X41910000Y-133840000D03*
D16*
X145985000Y-28250000D03*
X145985000Y-23250000D03*
D17*
X66425000Y-119167677D03*
D18*
X71505000Y-119167677D03*
D29*
X26485000Y-118600000D03*
D30*
X26485000Y-121140000D03*
X26485000Y-123680000D03*
X26485000Y-126220000D03*
X26485000Y-128760000D03*
X26485000Y-131300000D03*
X26485000Y-133840000D03*
X26485000Y-136380000D03*
D17*
X133600000Y-34810000D03*
D18*
X138680000Y-34810000D03*
D25*
X127000000Y-30720708D03*
D26*
X127000000Y-23220708D03*
D22*
X111029888Y-101877677D03*
D16*
X113029888Y-101877677D03*
D17*
X141485000Y-51890000D03*
D18*
X141485000Y-46810000D03*
D20*
X130485000Y-34810000D03*
D21*
X130485000Y-39890000D03*
D16*
X120190112Y-111817677D03*
X125190112Y-111817677D03*
D22*
X111029888Y-139510000D03*
D16*
X113029888Y-139510000D03*
D28*
X58875000Y-113237677D03*
X57605000Y-111967677D03*
X58875000Y-110697677D03*
D16*
X81125000Y-124487677D03*
X76125000Y-124487677D03*
M02*
