M48
; DRILL file {KiCad (6.0.11)} date Fri Mar 10 15:44:30 2023
; FORMAT={-:-/ absolute / inch / decimal}
; #@! TF.CreationDate,2023-03-10T15:44:30+07:00
; #@! TF.GenerationSoftware,Kicad,Pcbnew,(6.0.11)
; #@! TF.FileFunction,Plated,1,2,PTH
FMAT,2
INCH
; #@! TA.AperFunction,Plated,PTH,ViaDrill
T1C0.0197
; #@! TA.AperFunction,Plated,PTH,ComponentDrill
T2C0.0276
; #@! TA.AperFunction,Plated,PTH,ComponentDrill
T3C0.0295
; #@! TA.AperFunction,Plated,PTH,ComponentDrill
T4C0.0315
; #@! TA.AperFunction,Plated,PTH,ComponentDrill
T5C0.0394
; #@! TA.AperFunction,Plated,PTH,ComponentDrill
T6C0.0433
; #@! TA.AperFunction,Plated,PTH,ComponentDrill
T7C0.1102
; #@! TA.AperFunction,Plated,PTH,ComponentDrill
T8C0.1969
%
G90
G05
T1
X0.7Y-1.1
X0.7Y-1.3
X0.7Y-1.5
X0.7Y-1.7
X0.7Y-1.9
X0.7Y-2.1
X0.7Y-2.3
X0.7Y-2.5
X0.7Y-2.7
X0.7Y-2.9
X0.7Y-3.1
X0.7Y-3.3
X0.7Y-3.5
X0.7Y-5.3
X0.7Y-5.5
X0.7Y-5.7
X0.7Y-5.9
X0.7Y-6.1
X0.7Y-6.3
X1.0Y-0.8
X1.05Y-6.65
X1.0669Y-3.0906
X1.0669Y-3.1457
X1.2Y-0.8
X1.2Y-2.85
X1.2Y-3.0
X1.2402Y-3.3386
X1.2402Y-3.7374
X1.2402Y-3.9374
X1.25Y-6.65
X1.3346Y-4.3404
X1.3429Y-4.4374
X1.35Y-2.85
X1.35Y-3.0
X1.35Y-3.31
X1.35Y-5.5
X1.3701Y-2.1299
X1.375Y-1.425
X1.375Y-2.325
X1.3819Y-1.6181
X1.4Y-0.8
X1.45Y-6.65
X1.4701Y-2.1299
X1.475Y-1.425
X1.475Y-2.325
X1.4819Y-1.6181
X1.5Y-4.425
X1.5Y-4.5
X1.5Y-5.5
X1.5Y-5.65
X1.6Y-0.8
X1.65Y-6.65
X1.725Y-2.6
X1.725Y-2.675
X1.725Y-2.95
X1.75Y-6.0
X1.75Y-6.1
X1.7787Y-6.263
X1.8Y-0.8
X1.815Y-2.0
X1.85Y-6.65
X1.8543Y-5.3189
X1.9Y-1.45
X1.9Y-1.55
X1.9076Y-4.7814
X1.9154Y-2.2559
X1.9331Y-5.1969
X1.935Y-5.28
X1.94Y-6.15
X2.0Y-0.8
X2.0157Y-1.752
X2.0157Y-3.2047
X2.0157Y-4.6811
X2.0157Y-6.0965
X2.05Y-6.65
X2.1179Y-2.4726
X2.2Y-0.8
X2.2Y-3.55
X2.2Y-3.7
X2.2Y-3.85
X2.2Y-4.025
X2.2Y-4.475
X2.2Y-4.6
X2.2Y-5.3
X2.2Y-5.4
X2.2Y-5.5
X2.2Y-6.375
X2.2008Y-5.1969
X2.2165Y-3.4331
X2.225Y-1.875
X2.225Y-2.125
X2.225Y-6.025
X2.2402Y-2.2539
X2.4Y-0.8
X2.45Y-1.075
X2.45Y-1.25
X2.45Y-2.45
X2.45Y-3.9
X2.45Y-5.4
X2.6Y-0.8
X2.6Y-1.075
X2.6Y-1.25
X2.6Y-2.45
X2.6Y-3.9
X2.6Y-5.4
X2.65Y-2.0
X2.65Y-3.45
X2.65Y-4.925
X2.65Y-6.4
X2.75Y-1.075
X2.75Y-1.25
X2.75Y-2.45
X2.75Y-3.9
X2.75Y-5.4
X2.8Y-0.8
X2.9Y-1.075
X2.9Y-1.25
X2.9Y-2.45
X2.9Y-3.9
X2.9Y-5.4
X3.0Y-0.8
X3.0Y-2.75
X3.0Y-4.225
X3.0Y-5.7
X3.2Y-0.8
X3.2Y-1.6
X3.2Y-3.05
X3.2Y-4.5
X3.2Y-6.0
X3.3Y-1.3
X3.3Y-2.75
X3.3Y-4.225
X3.3Y-5.7
X3.375Y-2.025
X3.375Y-3.475
X3.375Y-4.95
X3.375Y-6.425
X3.4Y-0.8
X3.475Y-1.925
X3.475Y-3.375
X3.475Y-4.85
X3.475Y-6.325
X3.6Y-0.8
X3.675Y-1.925
X3.675Y-3.375
X3.675Y-4.85
X3.7Y-6.325
X3.8Y-0.8
X3.8Y-1.075
X3.8Y-2.55
X3.8Y-4.025
X3.8Y-5.525
X3.95Y-6.65
X4.0Y-0.8
X4.0Y-1.5
X4.0Y-2.95
X4.0Y-4.425
X4.0Y-5.9
X4.05Y-2.2
X4.05Y-3.7
X4.05Y-5.2
X4.15Y-6.65
X4.2Y-0.8
X4.2Y-1.075
X4.2Y-2.2
X4.2Y-2.55
X4.2Y-3.7
X4.2Y-4.025
X4.2Y-5.2
X4.2Y-5.525
X4.35Y-2.2
X4.35Y-3.7
X4.35Y-5.2
X4.35Y-6.65
X4.4Y-0.8
X4.45Y-1.6
X4.45Y-1.7
X4.45Y-1.8
X4.45Y-3.05
X4.45Y-3.15
X4.45Y-3.25
X4.45Y-4.5
X4.45Y-4.6
X4.45Y-4.7
X4.45Y-6.0
X4.45Y-6.1
X4.45Y-6.2
X4.55Y-6.65
X4.6Y-0.8
X4.625Y-1.1
X4.625Y-2.55
X4.625Y-4.025
X4.625Y-5.5
X4.75Y-6.65
X4.775Y-1.25
X4.775Y-2.675
X4.775Y-4.15
X4.775Y-5.625
X4.8Y-0.8
X4.95Y-6.65
X5.0Y-0.8
X5.0Y-1.05
X5.125Y-1.05
X5.15Y-6.65
X5.2Y-0.8
X5.275Y-1.6
X5.275Y-3.05
X5.275Y-4.525
X5.275Y-6.0
X5.35Y-1.425
X5.35Y-2.875
X5.35Y-4.35
X5.35Y-5.85
X5.35Y-6.65
X5.4Y-0.8
X5.55Y-6.65
X5.6Y-0.8
X5.65Y-2.15
X5.65Y-2.25
X5.65Y-3.6
X5.65Y-3.7
X5.65Y-5.1
X5.65Y-5.2
X5.65Y-6.55
X5.75Y-2.15
X5.75Y-2.25
X5.75Y-3.6
X5.75Y-3.7
X5.75Y-5.1
X5.75Y-5.2
X5.75Y-6.55
X5.75Y-6.65
X5.8Y-0.8
X5.85Y-2.15
X5.85Y-2.25
X5.85Y-3.6
X5.85Y-3.7
X5.85Y-5.1
X5.85Y-5.2
X5.85Y-6.55
X5.8671Y-3.1122
X5.8671Y-4.5935
X5.8671Y-6.0758
X5.8681Y-1.6594
X5.8848Y-3.1388
X5.8848Y-3.1703
X5.8848Y-3.2018
X5.8848Y-4.6201
X5.8848Y-4.6516
X5.8848Y-4.6831
X5.8848Y-6.1024
X5.8848Y-6.1339
X5.8848Y-6.1654
X5.8858Y-1.686
X5.8858Y-1.7175
X5.8858Y-1.749
X5.95Y-6.65
X6.0Y-0.8
X6.0039Y-1.2795
X6.0039Y-1.3386
X6.0039Y-1.3976
X6.0039Y-1.4567
X6.0039Y-1.5157
X6.0039Y-1.5748
X6.0039Y-2.7244
X6.0039Y-2.7835
X6.0039Y-2.8425
X6.0039Y-2.9016
X6.0039Y-2.9606
X6.0039Y-3.0197
X6.0039Y-3.6417
X6.0039Y-3.685
X6.0039Y-3.7244
X6.0039Y-4.2087
X6.0039Y-4.2677
X6.0039Y-4.3268
X6.0039Y-4.3858
X6.0039Y-4.4449
X6.0039Y-4.5039
X6.0039Y-5.689
X6.0039Y-5.748
X6.0039Y-5.8071
X6.0039Y-5.8661
X6.0039Y-5.9252
X6.0039Y-5.9843
X6.0354Y-1.3071
X6.0354Y-1.3661
X6.0354Y-1.4252
X6.0354Y-1.4843
X6.0354Y-1.5433
X6.0354Y-2.752
X6.0354Y-2.811
X6.0354Y-2.8701
X6.0354Y-2.9291
X6.0354Y-2.9882
X6.0354Y-4.2362
X6.0354Y-4.2953
X6.0354Y-4.3543
X6.0354Y-4.4134
X6.0354Y-4.4724
X6.0354Y-5.7165
X6.0354Y-5.7756
X6.0354Y-5.8346
X6.0354Y-5.8937
X6.0354Y-5.9528
X6.0433Y-3.685
X6.0827Y-3.6417
X6.0827Y-3.685
X6.0827Y-3.7244
X6.15Y-6.65
X6.2Y-0.8
X6.2965Y-3.9035
X6.3Y-4.3
X6.3Y-4.4
X6.35Y-6.65
X6.3965Y-3.9035
X6.4Y-0.8
X6.4Y-4.3
X6.4Y-4.4
X6.4965Y-3.9035
X6.5Y-4.3
X6.5Y-4.4
X6.7Y-1.1
X6.7Y-1.3
X6.7Y-1.5
X6.7Y-1.7
X6.7Y-1.9
X6.7Y-2.1
X6.7Y-2.3
X6.7Y-2.5
X6.7Y-2.7
X6.7Y-2.9
X6.7Y-3.1
X6.7Y-3.3
X6.7Y-3.5
X6.7Y-3.7
X6.7Y-3.9
X6.7Y-4.1
X6.7Y-4.3
X6.7Y-4.5
X6.7Y-4.7
X6.7Y-4.9
X6.7Y-5.1
X6.7Y-5.3
X6.7Y-5.5
X6.7Y-5.7
X6.7Y-5.9
X6.7Y-6.1
X6.7Y-6.3
T2
X1.4488Y-4.7693
X1.4488Y-4.8693
X1.4488Y-4.9693
X1.4488Y-5.0693
X1.45Y-5.1693
X1.45Y-5.2693
X1.6488Y-4.7598
X1.6488Y-4.8622
X1.6488Y-4.9693
X1.6488Y-5.0709
X1.65Y-5.1693
X1.65Y-5.2693
X2.1169Y-2.7575
X2.1179Y-1.3051
X2.1179Y-4.2369
X2.1179Y-5.7185
X2.3169Y-2.7575
X2.3169Y-3.102
X2.3169Y-3.302
X2.3179Y-1.3051
X2.3179Y-1.6496
X2.3179Y-1.8496
X2.3179Y-4.2369
X2.3179Y-4.5814
X2.3179Y-4.7814
X2.3179Y-5.7185
X2.3179Y-6.063
X2.3179Y-6.263
X2.5236Y-2.8811
X2.5236Y-3.0811
X2.5246Y-1.4287
X2.5246Y-1.6287
X2.5246Y-4.3605
X2.5246Y-4.5605
X2.5246Y-5.8421
X2.5246Y-6.0421
X2.6142Y-3.2122
X2.6152Y-1.7598
X2.6152Y-4.6916
X2.6152Y-6.1732
X2.8142Y-3.2122
X2.8152Y-1.7598
X2.8152Y-4.6916
X2.8152Y-6.1732
X3.4685Y-3.2724
X3.4685Y-3.4724
X3.4695Y-1.8201
X3.4695Y-2.0201
X3.4695Y-4.7519
X3.4695Y-4.9519
X3.4695Y-6.2335
X3.4695Y-6.4335
X3.69Y-2.435
X3.69Y-2.635
X3.6909Y-0.9827
X3.6909Y-1.1827
X3.6909Y-3.9145
X3.6909Y-4.1145
X3.6909Y-5.3961
X3.6909Y-5.5961
X4.0148Y-3.0953
X4.0148Y-3.2953
X4.0157Y-1.6429
X4.0157Y-1.8429
X4.0157Y-4.5747
X4.0157Y-4.7747
X4.0157Y-6.0563
X4.0157Y-6.2563
X4.1181Y-3.0953
X4.1181Y-3.2953
X4.1191Y-1.6429
X4.1191Y-1.8429
X4.1191Y-4.5747
X4.1191Y-4.7747
X4.1191Y-6.0563
X4.1191Y-6.2563
X5.2551Y-2.9228
X5.2551Y-4.4023
X5.2551Y-5.8839
X5.2583Y-1.8425
X5.2583Y-1.9425
X5.2583Y-2.8228
X5.2583Y-3.2953
X5.2583Y-3.3953
X5.2583Y-4.3023
X5.2583Y-4.7747
X5.2583Y-4.8747
X5.2583Y-5.7839
X5.2583Y-6.2563
X5.2583Y-6.3563
X5.2598Y-1.3705
X5.2598Y-1.4705
X5.4551Y-2.9228
X5.4551Y-4.4023
X5.4551Y-5.8839
X5.4583Y-1.8425
X5.4583Y-1.9425
X5.4583Y-2.8228
X5.4583Y-3.2953
X5.4583Y-3.3953
X5.4583Y-4.3023
X5.4583Y-4.7747
X5.4583Y-4.8747
X5.4583Y-5.7839
X5.4583Y-6.2563
X5.4583Y-6.3563
X5.4598Y-1.3705
X5.4598Y-1.4705
X5.5693Y-2.8228
X5.5693Y-3.0228
X5.5693Y-3.2953
X5.5693Y-3.4953
X5.5703Y-1.3705
X5.5703Y-1.5705
X5.5703Y-1.8429
X5.5703Y-2.0429
X5.5703Y-4.3023
X5.5703Y-4.5023
X5.5703Y-4.7747
X5.5703Y-4.9747
X5.5703Y-5.7839
X5.5703Y-5.9839
X5.5703Y-6.2563
X5.5703Y-6.4563
T3
X2.2669Y-2.9287
X2.2679Y-1.4764
X2.2679Y-4.4082
X2.2679Y-5.8898
X2.3169Y-2.8787
X2.3169Y-2.9787
X2.3179Y-1.4264
X2.3179Y-1.5264
X2.3179Y-4.3582
X2.3179Y-4.4582
X2.3179Y-5.8398
X2.3179Y-5.9398
T4
X1.2344Y-1.0752
X1.2344Y-1.272
X1.2344Y-2.4728
X1.2344Y-2.6697
X1.4173Y-3.5374
X1.4173Y-3.6374
X1.4173Y-3.7374
X1.4173Y-3.8374
X1.4173Y-3.9374
X1.4173Y-4.0374
X1.4173Y-4.1374
X1.4173Y-4.2374
X1.4173Y-4.3374
X1.4173Y-4.4374
X1.4646Y-3.315
X1.4941Y-3.0
X1.626Y-1.6172
X1.626Y-1.755
X1.6281Y-1.1343
X1.6281Y-1.272
X1.6281Y-2.0016
X1.6281Y-2.1984
X1.6281Y-2.4728
X1.6281Y-2.6106
X1.6319Y-3.0
X1.6614Y-3.315
X1.7173Y-3.5374
X1.7173Y-3.6374
X1.7173Y-3.7374
X1.7173Y-3.8374
X1.7173Y-3.9374
X1.7173Y-4.0374
X1.7173Y-4.1374
X1.7173Y-4.2374
X1.7173Y-4.3374
X1.7173Y-4.4374
X2.5236Y-3.4217
X2.5246Y-1.9693
X2.5246Y-4.9011
X2.5246Y-6.3827
X2.7213Y-2.8827
X2.7213Y-3.0795
X2.7222Y-1.4303
X2.7222Y-1.6272
X2.7222Y-4.3621
X2.7222Y-4.559
X2.7222Y-5.8437
X2.7222Y-6.0406
X2.8189Y-3.4217
X2.8199Y-1.9693
X2.8199Y-4.9011
X2.8199Y-6.3827
X2.9957Y-2.876
X2.9957Y-2.976
X2.9957Y-3.076
X2.9957Y-3.176
X2.9961Y-3.4217
X2.9967Y-1.4236
X2.9967Y-1.5236
X2.9967Y-1.6236
X2.9967Y-1.7236
X2.9967Y-4.3554
X2.9967Y-4.4554
X2.9967Y-4.5554
X2.9967Y-4.6554
X2.9967Y-5.837
X2.9967Y-5.937
X2.9967Y-6.037
X2.9967Y-6.137
X2.997Y-1.9693
X2.997Y-4.9011
X2.997Y-6.3827
X3.0461Y-2.6197
X3.047Y-1.1673
X3.047Y-4.0991
X3.047Y-5.5807
X3.1929Y-3.4217
X3.1939Y-1.9693
X3.1939Y-4.9011
X3.1939Y-6.3827
X3.2429Y-2.6197
X3.2439Y-1.1673
X3.2439Y-4.0991
X3.2439Y-5.5807
X3.2957Y-2.876
X3.2957Y-2.976
X3.2957Y-3.076
X3.2957Y-3.176
X3.2967Y-1.4236
X3.2967Y-1.5236
X3.2967Y-1.6236
X3.2967Y-1.7236
X3.2967Y-4.3554
X3.2967Y-4.4554
X3.2967Y-4.5554
X3.2967Y-4.6554
X3.2967Y-5.837
X3.2967Y-5.937
X3.2967Y-6.037
X3.2967Y-6.137
X3.4488Y-2.5654
X3.4488Y-2.6441
X3.4498Y-1.113
X3.4498Y-1.1917
X3.4498Y-4.0448
X3.4498Y-4.1235
X3.4498Y-5.5264
X3.4498Y-5.6051
X3.685Y-3.1756
X3.685Y-3.4709
X3.686Y-1.7232
X3.686Y-2.0185
X3.686Y-4.655
X3.686Y-4.9503
X3.686Y-6.1366
X3.686Y-6.4319
X4.2583Y-2.9898
X4.2583Y-3.0898
X4.2583Y-3.1898
X4.2583Y-3.2898
X4.2593Y-1.5374
X4.2593Y-1.6374
X4.2593Y-1.7374
X4.2593Y-1.8374
X4.2593Y-4.4692
X4.2593Y-4.5692
X4.2593Y-4.6692
X4.2593Y-4.7692
X4.2593Y-5.9508
X4.2593Y-6.0508
X4.2593Y-6.1508
X4.2593Y-6.2508
X4.3094Y-2.7917
X4.3104Y-1.3394
X4.3104Y-4.2712
X4.3104Y-5.7528
X4.3703Y-2.5315
X4.3713Y-1.0791
X4.3713Y-4.0109
X4.3713Y-5.4925
X4.449Y-2.5315
X4.45Y-1.0791
X4.45Y-4.0109
X4.45Y-5.4925
X4.5063Y-2.7917
X4.5073Y-1.3394
X4.5073Y-4.2712
X4.5073Y-5.7528
X4.5583Y-2.9898
X4.5583Y-3.0898
X4.5583Y-3.1898
X4.5583Y-3.2898
X4.5593Y-1.5374
X4.5593Y-1.6374
X4.5593Y-1.7374
X4.5593Y-1.8374
X4.5593Y-4.4692
X4.5593Y-4.5692
X4.5593Y-4.6692
X4.5593Y-4.7692
X4.5593Y-5.9508
X4.5593Y-6.0508
X4.5593Y-6.1508
X4.5593Y-6.2508
X4.7309Y-2.9228
X4.7319Y-1.4705
X4.7319Y-4.4023
X4.7319Y-5.8839
X4.8219Y-3.1453
X4.8219Y-3.224
X4.8228Y-1.6929
X4.8228Y-1.7717
X4.8228Y-4.6247
X4.8228Y-4.7035
X4.8228Y-6.1063
X4.8228Y-6.185
X4.9278Y-2.9228
X4.9287Y-1.4705
X4.9287Y-4.4023
X4.9287Y-5.8839
X5.4419Y-2.3677
X5.4419Y-2.5646
X5.4429Y-0.9154
X5.4429Y-1.1122
X5.4429Y-3.8472
X5.4429Y-4.044
X5.4429Y-5.3287
X5.4429Y-5.5256
X5.7465Y-2.3677
X5.7465Y-2.5646
X5.7474Y-0.9154
X5.7474Y-1.1122
X5.7474Y-3.8472
X5.7474Y-4.044
X5.7474Y-5.3287
X5.7474Y-5.5256
T5
X1.0427Y-4.6693
X1.0427Y-4.7693
X1.0427Y-4.8693
X1.0427Y-4.9693
X1.0427Y-5.0693
X1.0427Y-5.1693
X1.0427Y-5.2693
X1.0427Y-5.3693
X4.999Y-2.3666
X4.999Y-2.6618
X5.0Y-0.9142
X5.0Y-1.2095
X5.0Y-3.846
X5.0Y-4.1413
X5.0Y-5.3276
X5.0Y-5.6229
T6
X1.2344Y-1.5181
X1.2344Y-1.6181
X1.2344Y-1.7181
X1.2344Y-2.0299
X1.2344Y-2.1299
X1.2344Y-2.2299
X3.689Y-2.7729
X3.689Y-2.9729
X3.69Y-1.3206
X3.69Y-1.5206
X3.69Y-4.2524
X3.69Y-4.4524
X3.69Y-5.7339
X3.69Y-5.9339
X3.8622Y-2.779
X3.8622Y-2.979
X3.8632Y-1.3267
X3.8632Y-1.5267
X3.8632Y-4.2585
X3.8632Y-4.4585
X3.8632Y-5.7401
X3.8632Y-5.9401
X4.7379Y-3.4445
X4.7389Y-1.9921
X4.7389Y-4.9239
X4.7389Y-6.4055
X4.9379Y-3.4445
X4.9389Y-1.9921
X4.9389Y-4.9239
X4.9389Y-6.4055
X5.1362Y-2.8228
X5.1362Y-3.0228
X5.1362Y-3.2953
X5.1362Y-3.4953
X5.1372Y-1.3705
X5.1372Y-1.5705
X5.1372Y-1.8429
X5.1372Y-2.0429
X5.1372Y-4.3023
X5.1372Y-4.5023
X5.1372Y-4.7747
X5.1372Y-4.9747
X5.1372Y-5.7839
X5.1372Y-5.9839
X5.1372Y-6.2563
X5.1372Y-6.4563
X5.777Y-2.8228
X5.777Y-2.9228
X5.777Y-3.0228
X5.777Y-3.2953
X5.777Y-3.3953
X5.777Y-3.4953
X5.778Y-1.3705
X5.778Y-1.4705
X5.778Y-1.5705
X5.778Y-1.8429
X5.778Y-1.9429
X5.778Y-2.0429
X5.778Y-4.3023
X5.778Y-4.4023
X5.778Y-4.5023
X5.778Y-4.7747
X5.778Y-4.8747
X5.778Y-4.9747
X5.778Y-5.7839
X5.778Y-5.8839
X5.778Y-5.9839
X5.778Y-6.2563
X5.778Y-6.3563
X5.778Y-6.4563
T7
X6.4069Y-1.7067
X6.4069Y-3.1535
X6.4069Y-3.685
X6.4069Y-4.1083
X6.4069Y-4.6299
X6.4069Y-6.1102
T8
X0.8Y-0.9
X0.8Y-6.55
X6.6Y-0.9
X6.6Y-6.55
T0
M30
